<mxfile host="app.diagrams.net" modified="2022-12-19T15:38:30.094Z" agent="5.0 (Macintosh)" version="20.7.2" etag="xTmjVdpmq3DvuG6K_DQw" type="github">
  <diagram id="PhBgAkIv2iKpxoaBNRNj" name="Page-1">
    <mxGraphModel dx="935" dy="1072" grid="1" gridSize="10" guides="1" tooltips="1" connect="1" arrows="1" fold="1" page="1" pageScale="1" pageWidth="850" pageHeight="1100" math="0" shadow="0">
      <root>
        <mxCell id="0" />
        <mxCell id="1" parent="0" />
        <mxCell id="AMgz83IQuDpmgpYxbM82-19" style="edgeStyle=orthogonalEdgeStyle;rounded=0;orthogonalLoop=1;jettySize=auto;html=1;entryX=0;entryY=0.5;entryDx=0;entryDy=0;" edge="1" parent="1" source="AMgz83IQuDpmgpYxbM82-1" target="AMgz83IQuDpmgpYxbM82-8">
          <mxGeometry relative="1" as="geometry" />
        </mxCell>
        <mxCell id="AMgz83IQuDpmgpYxbM82-1" value="LINCS Level 5 Data" style="rounded=0;whiteSpace=wrap;html=1;" vertex="1" parent="1">
          <mxGeometry x="160" y="270" width="120" height="60" as="geometry" />
        </mxCell>
        <mxCell id="AMgz83IQuDpmgpYxbM82-53" style="edgeStyle=orthogonalEdgeStyle;rounded=0;orthogonalLoop=1;jettySize=auto;html=1;exitX=0.5;exitY=1;exitDx=0;exitDy=0;entryX=0.25;entryY=0;entryDx=0;entryDy=0;" edge="1" parent="1" source="AMgz83IQuDpmgpYxbM82-2" target="AMgz83IQuDpmgpYxbM82-38">
          <mxGeometry relative="1" as="geometry" />
        </mxCell>
        <mxCell id="AMgz83IQuDpmgpYxbM82-2" value="All Data Used" style="rounded=0;whiteSpace=wrap;html=1;" vertex="1" parent="1">
          <mxGeometry x="580" y="630" width="120" height="60" as="geometry" />
        </mxCell>
        <mxCell id="AMgz83IQuDpmgpYxbM82-51" style="edgeStyle=orthogonalEdgeStyle;rounded=0;orthogonalLoop=1;jettySize=auto;html=1;exitX=0.5;exitY=1;exitDx=0;exitDy=0;entryX=0;entryY=0.5;entryDx=0;entryDy=0;" edge="1" parent="1" source="AMgz83IQuDpmgpYxbM82-3" target="AMgz83IQuDpmgpYxbM82-38">
          <mxGeometry relative="1" as="geometry" />
        </mxCell>
        <mxCell id="AMgz83IQuDpmgpYxbM82-3" value="All LINCS Level 5 Data Used" style="rounded=0;whiteSpace=wrap;html=1;" vertex="1" parent="1">
          <mxGeometry x="80" y="640" width="120" height="60" as="geometry" />
        </mxCell>
        <mxCell id="AMgz83IQuDpmgpYxbM82-45" style="edgeStyle=orthogonalEdgeStyle;rounded=0;orthogonalLoop=1;jettySize=auto;html=1;exitX=0;exitY=0.5;exitDx=0;exitDy=0;entryX=0.5;entryY=0;entryDx=0;entryDy=0;" edge="1" parent="1" source="AMgz83IQuDpmgpYxbM82-4" target="AMgz83IQuDpmgpYxbM82-3">
          <mxGeometry relative="1" as="geometry" />
        </mxCell>
        <mxCell id="AMgz83IQuDpmgpYxbM82-46" style="edgeStyle=orthogonalEdgeStyle;rounded=0;orthogonalLoop=1;jettySize=auto;html=1;exitX=1;exitY=0.5;exitDx=0;exitDy=0;entryX=0.433;entryY=-0.033;entryDx=0;entryDy=0;entryPerimeter=0;" edge="1" parent="1" source="AMgz83IQuDpmgpYxbM82-4" target="AMgz83IQuDpmgpYxbM82-29">
          <mxGeometry relative="1" as="geometry" />
        </mxCell>
        <mxCell id="AMgz83IQuDpmgpYxbM82-4" value="LINCS Level 5 Data with Relevant MoAs" style="rounded=0;whiteSpace=wrap;html=1;" vertex="1" parent="1">
          <mxGeometry x="160" y="510" width="120" height="60" as="geometry" />
        </mxCell>
        <mxCell id="AMgz83IQuDpmgpYxbM82-54" style="edgeStyle=orthogonalEdgeStyle;rounded=0;orthogonalLoop=1;jettySize=auto;html=1;exitX=0.5;exitY=1;exitDx=0;exitDy=0;entryX=0.75;entryY=0;entryDx=0;entryDy=0;" edge="1" parent="1" source="AMgz83IQuDpmgpYxbM82-5" target="AMgz83IQuDpmgpYxbM82-38">
          <mxGeometry relative="1" as="geometry" />
        </mxCell>
        <mxCell id="AMgz83IQuDpmgpYxbM82-5" value="High quality data used" style="rounded=0;whiteSpace=wrap;html=1;" vertex="1" parent="1">
          <mxGeometry x="750" y="630" width="120" height="60" as="geometry" />
        </mxCell>
        <mxCell id="AMgz83IQuDpmgpYxbM82-47" style="edgeStyle=orthogonalEdgeStyle;rounded=0;orthogonalLoop=1;jettySize=auto;html=1;exitX=0;exitY=0.5;exitDx=0;exitDy=0;entryX=0.25;entryY=0;entryDx=0;entryDy=0;" edge="1" parent="1" source="AMgz83IQuDpmgpYxbM82-6" target="AMgz83IQuDpmgpYxbM82-2">
          <mxGeometry relative="1" as="geometry" />
        </mxCell>
        <mxCell id="AMgz83IQuDpmgpYxbM82-48" style="edgeStyle=orthogonalEdgeStyle;rounded=0;orthogonalLoop=1;jettySize=auto;html=1;exitX=1;exitY=0.5;exitDx=0;exitDy=0;entryX=0.5;entryY=0;entryDx=0;entryDy=0;" edge="1" parent="1" source="AMgz83IQuDpmgpYxbM82-6" target="AMgz83IQuDpmgpYxbM82-5">
          <mxGeometry relative="1" as="geometry" />
        </mxCell>
        <mxCell id="AMgz83IQuDpmgpYxbM82-6" value="LINCS Level 5 Data using Bayesian peaked convolution with relevant MoAs" style="rounded=0;whiteSpace=wrap;html=1;" vertex="1" parent="1">
          <mxGeometry x="655" y="520" width="120" height="60" as="geometry" />
        </mxCell>
        <mxCell id="AMgz83IQuDpmgpYxbM82-40" style="edgeStyle=orthogonalEdgeStyle;rounded=0;orthogonalLoop=1;jettySize=auto;html=1;exitX=0.25;exitY=1;exitDx=0;exitDy=0;entryX=0.5;entryY=0;entryDx=0;entryDy=0;" edge="1" parent="1" source="AMgz83IQuDpmgpYxbM82-8" target="AMgz83IQuDpmgpYxbM82-4">
          <mxGeometry relative="1" as="geometry" />
        </mxCell>
        <mxCell id="AMgz83IQuDpmgpYxbM82-41" style="edgeStyle=orthogonalEdgeStyle;rounded=0;orthogonalLoop=1;jettySize=auto;html=1;exitX=0.75;exitY=1;exitDx=0;exitDy=0;entryX=0.5;entryY=0;entryDx=0;entryDy=0;" edge="1" parent="1" source="AMgz83IQuDpmgpYxbM82-8" target="AMgz83IQuDpmgpYxbM82-30">
          <mxGeometry relative="1" as="geometry" />
        </mxCell>
        <mxCell id="AMgz83IQuDpmgpYxbM82-42" style="edgeStyle=orthogonalEdgeStyle;rounded=0;orthogonalLoop=1;jettySize=auto;html=1;exitX=0.5;exitY=1;exitDx=0;exitDy=0;" edge="1" parent="1" source="AMgz83IQuDpmgpYxbM82-8">
          <mxGeometry relative="1" as="geometry">
            <mxPoint x="720" y="520" as="targetPoint" />
          </mxGeometry>
        </mxCell>
        <mxCell id="AMgz83IQuDpmgpYxbM82-8" value="Extract all relevant expression profiles for relevant MoAs/Compounds" style="rounded=0;whiteSpace=wrap;html=1;" vertex="1" parent="1">
          <mxGeometry x="640" y="400" width="160" height="60" as="geometry" />
        </mxCell>
        <mxCell id="AMgz83IQuDpmgpYxbM82-11" value="Things to Keep Track Of" style="swimlane;whiteSpace=wrap;html=1;" vertex="1" parent="1">
          <mxGeometry x="150" y="930" width="200" height="200" as="geometry" />
        </mxCell>
        <mxCell id="AMgz83IQuDpmgpYxbM82-12" value="Cell type" style="text;html=1;align=center;verticalAlign=middle;resizable=0;points=[];autosize=1;strokeColor=none;fillColor=none;" vertex="1" parent="AMgz83IQuDpmgpYxbM82-11">
          <mxGeometry y="30" width="70" height="30" as="geometry" />
        </mxCell>
        <mxCell id="AMgz83IQuDpmgpYxbM82-13" value="D" style="text;html=1;align=center;verticalAlign=middle;resizable=0;points=[];autosize=1;strokeColor=none;fillColor=none;" vertex="1" parent="AMgz83IQuDpmgpYxbM82-11">
          <mxGeometry x="20" y="60" width="30" height="30" as="geometry" />
        </mxCell>
        <mxCell id="AMgz83IQuDpmgpYxbM82-37" value="Cell type" style="text;html=1;align=center;verticalAlign=middle;resizable=0;points=[];autosize=1;strokeColor=none;fillColor=none;" vertex="1" parent="AMgz83IQuDpmgpYxbM82-11">
          <mxGeometry y="90" width="70" height="30" as="geometry" />
        </mxCell>
        <mxCell id="AMgz83IQuDpmgpYxbM82-21" style="edgeStyle=orthogonalEdgeStyle;rounded=0;orthogonalLoop=1;jettySize=auto;html=1;entryX=0.463;entryY=-0.033;entryDx=0;entryDy=0;entryPerimeter=0;" edge="1" parent="1" source="AMgz83IQuDpmgpYxbM82-16" target="AMgz83IQuDpmgpYxbM82-8">
          <mxGeometry relative="1" as="geometry" />
        </mxCell>
        <mxCell id="AMgz83IQuDpmgpYxbM82-16" value="LINCS Level 5 Data using Bayesian peaked deconvolution" style="rounded=0;whiteSpace=wrap;html=1;" vertex="1" parent="1">
          <mxGeometry x="640" y="270" width="150" height="60" as="geometry" />
        </mxCell>
        <mxCell id="AMgz83IQuDpmgpYxbM82-22" style="edgeStyle=orthogonalEdgeStyle;rounded=0;orthogonalLoop=1;jettySize=auto;html=1;entryX=1;entryY=0.5;entryDx=0;entryDy=0;" edge="1" parent="1" source="AMgz83IQuDpmgpYxbM82-17" target="AMgz83IQuDpmgpYxbM82-8">
          <mxGeometry relative="1" as="geometry" />
        </mxCell>
        <mxCell id="AMgz83IQuDpmgpYxbM82-17" value="&lt;div&gt;LINCS Level 5 Data Using Characteristic Direction&lt;/div&gt;" style="rounded=0;whiteSpace=wrap;html=1;" vertex="1" parent="1">
          <mxGeometry x="1100" y="270" width="150" height="60" as="geometry" />
        </mxCell>
        <mxCell id="AMgz83IQuDpmgpYxbM82-52" style="edgeStyle=orthogonalEdgeStyle;rounded=0;orthogonalLoop=1;jettySize=auto;html=1;entryX=0;entryY=0.75;entryDx=0;entryDy=0;" edge="1" parent="1" source="AMgz83IQuDpmgpYxbM82-29" target="AMgz83IQuDpmgpYxbM82-38">
          <mxGeometry relative="1" as="geometry" />
        </mxCell>
        <mxCell id="AMgz83IQuDpmgpYxbM82-29" value="High Quality Data" style="rounded=0;whiteSpace=wrap;html=1;" vertex="1" parent="1">
          <mxGeometry x="270" y="640" width="120" height="60" as="geometry" />
        </mxCell>
        <mxCell id="AMgz83IQuDpmgpYxbM82-49" style="edgeStyle=orthogonalEdgeStyle;rounded=0;orthogonalLoop=1;jettySize=auto;html=1;exitX=0;exitY=0.5;exitDx=0;exitDy=0;entryX=0.5;entryY=0;entryDx=0;entryDy=0;" edge="1" parent="1" source="AMgz83IQuDpmgpYxbM82-30" target="AMgz83IQuDpmgpYxbM82-31">
          <mxGeometry relative="1" as="geometry" />
        </mxCell>
        <mxCell id="AMgz83IQuDpmgpYxbM82-50" style="edgeStyle=orthogonalEdgeStyle;rounded=0;orthogonalLoop=1;jettySize=auto;html=1;exitX=1;exitY=0.5;exitDx=0;exitDy=0;entryX=0.5;entryY=0;entryDx=0;entryDy=0;" edge="1" parent="1" source="AMgz83IQuDpmgpYxbM82-30" target="AMgz83IQuDpmgpYxbM82-32">
          <mxGeometry relative="1" as="geometry" />
        </mxCell>
        <mxCell id="AMgz83IQuDpmgpYxbM82-30" value="&lt;div&gt;LINCS Level 5 Data Using Characteristic Direction&lt;/div&gt;" style="rounded=0;whiteSpace=wrap;html=1;" vertex="1" parent="1">
          <mxGeometry x="1110" y="510" width="150" height="60" as="geometry" />
        </mxCell>
        <mxCell id="AMgz83IQuDpmgpYxbM82-55" style="edgeStyle=orthogonalEdgeStyle;rounded=0;orthogonalLoop=1;jettySize=auto;html=1;exitX=0.5;exitY=1;exitDx=0;exitDy=0;entryX=1;entryY=0.5;entryDx=0;entryDy=0;" edge="1" parent="1" source="AMgz83IQuDpmgpYxbM82-31" target="AMgz83IQuDpmgpYxbM82-38">
          <mxGeometry relative="1" as="geometry" />
        </mxCell>
        <mxCell id="AMgz83IQuDpmgpYxbM82-31" value="All Data Used" style="rounded=0;whiteSpace=wrap;html=1;" vertex="1" parent="1">
          <mxGeometry x="1020" y="630" width="120" height="60" as="geometry" />
        </mxCell>
        <mxCell id="AMgz83IQuDpmgpYxbM82-56" style="edgeStyle=orthogonalEdgeStyle;rounded=0;orthogonalLoop=1;jettySize=auto;html=1;exitX=0.5;exitY=1;exitDx=0;exitDy=0;entryX=1.008;entryY=0.65;entryDx=0;entryDy=0;entryPerimeter=0;" edge="1" parent="1" source="AMgz83IQuDpmgpYxbM82-32" target="AMgz83IQuDpmgpYxbM82-38">
          <mxGeometry relative="1" as="geometry" />
        </mxCell>
        <mxCell id="AMgz83IQuDpmgpYxbM82-32" value="High Quality data used" style="rounded=0;whiteSpace=wrap;html=1;" vertex="1" parent="1">
          <mxGeometry x="1250" y="630" width="120" height="60" as="geometry" />
        </mxCell>
        <mxCell id="AMgz83IQuDpmgpYxbM82-58" style="edgeStyle=orthogonalEdgeStyle;rounded=0;orthogonalLoop=1;jettySize=auto;html=1;exitX=0.5;exitY=1;exitDx=0;exitDy=0;entryX=0.5;entryY=0;entryDx=0;entryDy=0;" edge="1" parent="1" source="AMgz83IQuDpmgpYxbM82-38" target="AMgz83IQuDpmgpYxbM82-39">
          <mxGeometry relative="1" as="geometry" />
        </mxCell>
        <mxCell id="AMgz83IQuDpmgpYxbM82-38" value="Classifier" style="rounded=0;whiteSpace=wrap;html=1;" vertex="1" parent="1">
          <mxGeometry x="655" y="760" width="120" height="60" as="geometry" />
        </mxCell>
        <mxCell id="AMgz83IQuDpmgpYxbM82-39" value="Model assessments" style="rounded=0;whiteSpace=wrap;html=1;" vertex="1" parent="1">
          <mxGeometry x="655" y="850" width="120" height="60" as="geometry" />
        </mxCell>
      </root>
    </mxGraphModel>
  </diagram>
</mxfile>
